<svg id="visual" viewBox="0 0 960 540" width="960" height="540" xmlns="http://www.w3.org/2000/svg" xmlns:xlink="http://www.w3.org/1999/xlink" version="1.1"><rect x="0" y="0" width="960" height="540" fill="#FFFFFF"></rect><path d="M0 212L22.8 201.3C45.7 190.7 91.3 169.3 137 163.3C182.7 157.3 228.3 166.7 274 167.8C319.7 169 365.3 162 411.2 168.5C457 175 503 195 548.8 205.2C594.7 215.3 640.3 215.7 686 211.7C731.7 207.7 777.3 199.3 823 187.5C868.7 175.7 914.3 160.3 937.2 152.7L960 145L960 0L937.2 0C914.3 0 868.7 0 823 0C777.3 0 731.7 0 686 0C640.3 0 594.7 0 548.8 0C503 0 457 0 411.2 0C365.3 0 319.7 0 274 0C228.3 0 182.7 0 137 0C91.3 0 45.7 0 22.8 0L0 0Z" fill="#fa7268"></path><path d="M0 107L22.8 111.5C45.7 116 91.3 125 137 128.3C182.7 131.7 228.3 129.3 274 125.2C319.7 121 365.3 115 411.2 116C457 117 503 125 548.8 124.5C594.7 124 640.3 115 686 117.2C731.7 119.3 777.3 132.7 823 141.2C868.7 149.7 914.3 153.3 937.2 155.2L960 157L960 0L937.2 0C914.3 0 868.7 0 823 0C777.3 0 731.7 0 686 0C640.3 0 594.7 0 548.8 0C503 0 457 0 411.2 0C365.3 0 319.7 0 274 0C228.3 0 182.7 0 137 0C91.3 0 45.7 0 22.8 0L0 0Z" fill="#ef5f67"></path><path d="M0 106L22.8 106.3C45.7 106.7 91.3 107.3 137 112.5C182.7 117.7 228.3 127.3 274 125.8C319.7 124.3 365.3 111.7 411.2 106.5C457 101.3 503 103.7 548.8 110.8C594.7 118 640.3 130 686 130.7C731.7 131.3 777.3 120.7 823 111C868.7 101.3 914.3 92.7 937.2 88.3L960 84L960 0L937.2 0C914.3 0 868.7 0 823 0C777.3 0 731.7 0 686 0C640.3 0 594.7 0 548.8 0C503 0 457 0 411.2 0C365.3 0 319.7 0 274 0C228.3 0 182.7 0 137 0C91.3 0 45.7 0 22.8 0L0 0Z" fill="#e34c67"></path><path d="M0 97L22.8 94C45.7 91 91.3 85 137 85.2C182.7 85.3 228.3 91.7 274 86.8C319.7 82 365.3 66 411.2 63.5C457 61 503 72 548.8 73.7C594.7 75.3 640.3 67.7 686 64C731.7 60.3 777.3 60.7 823 66C868.7 71.3 914.3 81.7 937.2 86.8L960 92L960 0L937.2 0C914.3 0 868.7 0 823 0C777.3 0 731.7 0 686 0C640.3 0 594.7 0 548.8 0C503 0 457 0 411.2 0C365.3 0 319.7 0 274 0C228.3 0 182.7 0 137 0C91.3 0 45.7 0 22.8 0L0 0Z" fill="#d53867"></path><path d="M0 36L22.8 39.3C45.7 42.7 91.3 49.3 137 47.5C182.7 45.7 228.3 35.3 274 35.7C319.7 36 365.3 47 411.2 50.3C457 53.7 503 49.3 548.8 46.8C594.7 44.3 640.3 43.7 686 44.5C731.7 45.3 777.3 47.7 823 49.5C868.7 51.3 914.3 52.7 937.2 53.3L960 54L960 0L937.2 0C914.3 0 868.7 0 823 0C777.3 0 731.7 0 686 0C640.3 0 594.7 0 548.8 0C503 0 457 0 411.2 0C365.3 0 319.7 0 274 0C228.3 0 182.7 0 137 0C91.3 0 45.7 0 22.8 0L0 0Z" fill="#c62368"></path></svg>